

Release info:

General
Format                                   : Matroska
Format version                           : Version 2
File size                                : 688 MiB
Duration                                 : 2h 15mn
Overall bit rate                         : 712 Kbps
Movie name                               : Son of Sardaar


Video
ID                                       : 1
Format                                   : MPEG-4 Visual
Format profile                           : Advanced Simple@L5
Format settings, BVOP                    : Yes
Format settings, QPel                    : No
Format settings, GMC                     : No warppoints
Format settings, Matrix                  : Default (H.263)
Codec ID                                 : V_MS/VFW/FOURCC / XVID
Codec ID/Hint                            : XviD
Duration                                 : 2h 15mn
Bit rate                                 : 602 Kbps
Width                                    : 640 pixels
Height                                   : 272 pixels
Display aspect ratio                     : 2.35:1
Frame rate mode                          : Constant
Frame rate                               : 25.000 fps
Color space                              : YUV
Chroma subsampling                       : 4:2:0
Bit depth                                : 8 bits
Scan type                                : Progressive
Compression mode                         : Lossy
Bits/(Pixel*Frame)                       : 0.138
Stream size                              : 582 MiB (85%)
Title                                    : Son of Sardaar
Language                                 : Hindi
Default                                  : Yes
Forced                                   : No

Audio
ID                                       : 2
Format                                   : MPEG Audio
Format version                           : Version 1
Format profile                           : Layer 3
Mode                                     : Joint stereo
Muxing mode                              : Header stripping
Codec ID                                 : A_MPEG/L3
Codec ID/Hint                            : MP3
Duration                                 : 2h 15mn
Bit rate mode                            : Constant
Bit rate                                 : 96.0 Kbps
Channel(s)                               : 2 channels
Sampling rate                            : 32.0 KHz
Compression mode                         : Lossy
Stream size                              : 92.7 MiB (13%)
Title                                    : Son of Sardaar
Language                                 : Hindi
Default                                  : Yes
Forced                                   : No

Source:
credit to original movie ripper DDR (Thanks)

IMDB Info:

Returning to his parents' village, a man becomes the latest target in a long-standing family feud.

Director: Ashwani Dhir
Writers: Robin Bhatt (screenplay), Ashwani Dhir (screenplay),
Stars: Ajay Devgn, Sanjay Dutt and Sonakshi Sinha

Genres: Action | Comedy | Romance
 
http://www.imdb.com/title/tt2178508/

Screen Shot:
 
http://hostpicturefree.com/images/vlcsnamzm.png 
http://hostpicturefree.com/images/vlcsnawcw.png 
http://hostpicturefree.com/images/vlcsnalwl.png 
http://hostpicturefree.com/images/vlcsnalel.png 
http://hostpicturefree.com/images/vlcsnaqgq.png 
http://hostpicturefree.com/images/vlcsnabeb.png